<svg width="64" height="34" viewBox="0 0 64 34" fill="none" xmlns="http://www.w3.org/2000/svg">
<path d="M33.0221 29.3513C32.5076 29.3513 31.9932 29.3426 31.4787 29.3339C16.1318 28.9673 4.23789 23.3197 4.39485 16.4588C4.47332 12.9585 7.56887 9.85107 13.0885 7.70377C18.2071 5.72231 24.9475 4.7185 32.0542 4.88434C39.1609 5.05019 45.849 6.37698 50.8629 8.60284C56.278 11.012 59.2165 14.2591 59.1294 17.7594C59.0509 21.2597 55.9553 24.3672 50.4357 26.5145C45.6921 28.3562 39.5533 29.3513 33.0221 29.3513ZM30.5021 7.75614C24.3197 7.75614 18.5559 8.6814 14.1349 10.40098C9.82731 12.0682 7.33344 14.3115 7.28112 16.5286C7.17648 20.9454 17.1171 26.1042 31.5485 26.4446C38.2976 26.6017 44.6282 25.6765 49.4067 23.826C53.7143 22.1588 56.2082 19.9242 56.2605 17.6983C56.3128 15.4725 53.9236 13.1244 49.7032 11.2564C45.0206 9.17894 38.7336 7.94817 32.0019 7.78233C31.4874 7.76487 30.9991 7.76487 30.5021 7.75614Z" fill="white"/>
<path d="M61.7802 23.73C62.687 23.9307 63.5678 23.2324 63.5416 22.2984C63.4457 18.7458 60.8297 14.9749 55.9902 11.4834L55.9989 11.4921C50.6973 7.66885 43.2156 4.54392 34.9666 2.6934C26.7177 0.851608 18.6344 0.502453 12.1904 1.698307C5.34531 2.98145 1.07258 5.91435 0.174436 9.96454C-1.62185 18.0038 10.865 27.4048 28.5837 31.359C31.5136 32.0136 34.4173 32.4763 37.2251 32.7556C37.8355 32.8167 38.4197 32.4675 38.6726 31.9089C39.0737 31.0098 38.4895 29.9798 37.5128 29.8838C34.8184 29.6219 32.0281 29.1768 29.2115 28.5483C11.9898 24.6901 1.74401 16.1533 2.99095 10.59301C3.61006 7.78232 7.15904 5.57392 12.7223 4.53519C15.0592 4.10747 17.6403 3.88052 20.3783 3.88052C24.7295 3.88052 29.4993 4.43044 34.3388 5.51282C42.2216 7.27605 49.3108 10.23513 54.316 13.8314C58.3533 16.7381 60.603 19.7932 60.664 22.4032C60.6728 23.0491 61.1524 23.5903 61.7802 23.73Z" fill="white"/>
<path d="M44.7766 32.9913C43.6953 33.0175 42.771 32.9825 42.0385 32.9302C41.1404 32.8603 40.5038 32.0311 40.6608 31.1408V31.132C40.7916 30.3639 41.4892 29.814 42.2652 29.8663C45.2649 30.0671 52.607 29.9536 58.2313 24.8909C58.8242 24.3584 59.7224 24.3672 60.2979 24.9171C60.9432 25.5281 60.9432 26.5581 60.2805 27.1517C55.1357 31.8303 48.8836 32.8865 44.7766 32.9913Z" fill="white"/>
<path d="M23.2558 20.5003H21.3985C21.2328 20.5003 21.1107 20.3344 21.1717 20.1686L24.2237 12.1031C24.2586 12.0071 24.3458 11.946 24.4504 11.946H26.5606C26.6652 11.946 26.7524 12.0071 26.7873 12.1031L29.8393 20.1686C29.9003 20.3257 29.7782 20.5003 29.6126 20.5003H27.7552C27.6506 20.5003 27.5634 20.4392 27.5285 20.3431L27.0925 19.1386C27.0576 19.0425 26.9704 18.9814 26.8658 18.9814H24.1539C24.0493 18.9814 23.9621 19.0425 23.9272 19.1386L23.4912 20.3431C23.4476 20.4392 23.3604 20.5003 23.2558 20.5003ZM24.869 17.3841H26.1421C26.3077 17.3841 26.4298 17.2182 26.3688 17.0611L25.7322 15.1844C25.6537 14.9662 25.3485 14.9662 25.2701 15.1844L24.6335 17.0611C24.5812 17.2182 24.7033 17.3841 24.869 17.3841Z" fill="white"/>
<path d="M36.3007 20.3257C36.3007 20.4566 36.196 20.5701 36.0565 20.5701H33.0569C32.9523 20.5701 32.8651 20.5701 32.7604 20.5701C32.6383 20.5701 32.5075 20.5701 32.3942 20.5701C31.6007 20.5701 31.0077 20.3868 30.6328 20.0115C30.2578 19.6448 30.0747 19.06 30.0747 18.2657V14.3901C30.0747 13.5434 30.2665 12.9323 30.6589 12.5483C31.0426 12.1642 31.6704 11.9722 32.525 11.9722H36.0652C36.196 11.9722 36.3094 12.0769 36.3094 12.2166V13.4386C36.3094 13.5696 36.2048 13.683 36.0652 13.683H33.2575C32.7168 13.683 32.2895 14.1195 32.2895 14.6519V18.3006C32.2895 18.4839 32.3419 18.6323 32.4552 18.7458C32.5511 18.8418 32.6907 18.8942 32.8476 18.9029H36.0652C36.196 18.9029 36.3094 19.0076 36.3094 19.1473V20.3257H36.3007Z" fill="white"/>
<path d="M41.9775 13.4474V12.2079C41.9775 12.0769 41.8728 11.9634 41.7333 11.9634H37.7222C37.5914 11.9634 37.478 12.0682 37.478 12.2079V13.4474C37.478 13.5783 37.5827 13.6918 37.7222 13.6918H38.629C38.7598 13.6918 38.8732 13.7965 38.8732 13.9362V18.6061C38.8732 18.737 38.7686 18.8505 38.629 18.8505H37.7222C37.5914 18.8505 37.478 18.9553 37.478 19.0949V20.3344C37.478 20.4654 37.5827 20.5788 37.7222 20.5788H41.7333C41.8641 20.5788 41.9775 20.4741 41.9775 20.3344V19.0949C41.9775 18.964 41.8728 18.8505 41.7333 18.8505H40.8265C40.6957 18.8505 40.5823 18.7458 40.5823 18.6061V13.9362C40.5823 13.8052 40.6869 13.6918 40.8265 13.6918H41.7333C41.8728 13.6918 41.9775 13.587 41.9775 13.4474Z" fill="white"/>
</svg>